<?xml version="1.0" encoding="UTF-8"?>
<svg xmlns="http://www.w3.org/2000/svg" width="1800" height="1200" viewBox="0 0 1800 1200">
  <defs>
    <!-- Background gradients -->
    <radialGradient id="bg" cx="70%" cy="0%" r="140%">
      <stop offset="0%" stop-color="#160a2b"/>
      <stop offset="45%" stop-color="#0e0822"/>
      <stop offset="100%" stop-color="#09061a"/>
    </radialGradient>
    <radialGradient id="spot" cx="80%" cy="20%" r="70%">
      <stop offset="0%" stop-color="#a45bff" stop-opacity="0.20"/>
      <stop offset="60%" stop-color="#a45bff" stop-opacity="0.06"/>
      <stop offset="100%" stop-color="#a45bff" stop-opacity="0"/>
    </radialGradient>

    <!-- Grid line fade -->
    <linearGradient id="gridFade" x1="0" y1="0" x2="0" y2="1">
      <stop offset="0%" stop-color="#8f6bff" stop-opacity="0.08"/>
      <stop offset="50%" stop-color="#8f6bff" stop-opacity="0.05"/>
      <stop offset="100%" stop-color="#8f6bff" stop-opacity="0.02"/>
    </linearGradient>

    <!-- Bars gradient -->
    <linearGradient id="barGrad" x1="0" y1="1" x2="0" y2="0">
      <stop offset="0%" stop-color="#6a40ff" stop-opacity="0.18"/>
      <stop offset="65%" stop-color="#8a60ff" stop-opacity="0.60"/>
      <stop offset="100%" stop-color="#c090ff" stop-opacity="0.98"/>
    </linearGradient>

    <!-- Line gradients -->
    <linearGradient id="neonMain" x1="0" y1="0" x2="1" y2="0">
      <stop offset="0%" stop-color="#b26dff"/>
      <stop offset="50%" stop-color="#c67dff"/>
      <stop offset="100%" stop-color="#dc8cff"/>
    </linearGradient>
    <linearGradient id="neonSecondary" x1="0" y1="0" x2="1" y2="0">
      <stop offset="0%" stop-color="#8a63ff"/>
      <stop offset="100%" stop-color="#b88aff"/>
    </linearGradient>

    <!-- Glows & blooms -->
    <filter id="heavyGlow" x="-60%" y="-60%" width="220%" height="220%">
      <feGaussianBlur stdDeviation="14" result="b"/>
      <feMerge>
        <feMergeNode in="b"/>
        <feMergeNode in="b"/>
      </feMerge>
    </filter>
    <filter id="softGlow" x="-50%" y="-50%" width="200%" height="200%">
      <feGaussianBlur stdDeviation="6" result="b"/>
      <feMerge>
        <feMergeNode in="b"/>
        <feMergeNode in="b"/>
      </feMerge>
    </filter>
    <filter id="orbGlow" x="-50%" y="-50%" width="200%" height="200%">
      <feGaussianBlur stdDeviation="10"/>
    </filter>

    <!-- Reflection mask (fade out downward) -->
    <linearGradient id="reflectMask" x1="0" y1="0" x2="0" y2="1">
      <stop offset="0%" stop-color="white" stop-opacity="0.55"/>
      <stop offset="60%" stop-color="white" stop-opacity="0.15"/>
      <stop offset="100%" stop-color="white" stop-opacity="0"/>
    </linearGradient>
    <mask id="fadeDown">
      <rect x="0" y="0" width="100%" height="100%" fill="url(#reflectMask)"/>
    </mask>
  </defs>

  <!-- BACKDROP -->
  <rect width="100%" height="100%" fill="url(#bg)"/>
  <rect width="100%" height="100%" fill="url(#spot)"/>
  <!-- Vignette -->
  <rect width="100%" height="100%" fill="#000" opacity="0.22"/>

  <!-- Decorative corner blooms -->
  <g opacity="0.45">
    <circle cx="1746.0" cy="72.0" r="220" fill="#a45bff" filter="url(#heavyGlow)" />
    <circle cx="108.0" cy="1104.0" r="160" fill="#6a40ff" filter="url(#heavyGlow)" />
  </g>

  <!-- Chart frame -->
  <g>
    <rect x="120" y="120" width="1560" height="960" rx="28"
          fill="none" stroke="#2e2352" stroke-opacity="0.5"/>
  </g>

  <!-- Subtle grid -->
  <g opacity="0.85">
    <line x1="160.00" y1="160" x2="160.00" y2="1040" stroke="url(#gridFade)" /><line x1="308.00" y1="160" x2="308.00" y2="1040" stroke="url(#gridFade)" /><line x1="456.00" y1="160" x2="456.00" y2="1040" stroke="url(#gridFade)" /><line x1="604.00" y1="160" x2="604.00" y2="1040" stroke="url(#gridFade)" /><line x1="752.00" y1="160" x2="752.00" y2="1040" stroke="url(#gridFade)" /><line x1="900.00" y1="160" x2="900.00" y2="1040" stroke="url(#gridFade)" /><line x1="1048.00" y1="160" x2="1048.00" y2="1040" stroke="url(#gridFade)" /><line x1="1196.00" y1="160" x2="1196.00" y2="1040" stroke="url(#gridFade)" /><line x1="1344.00" y1="160" x2="1344.00" y2="1040" stroke="url(#gridFade)" /><line x1="1492.00" y1="160" x2="1492.00" y2="1040" stroke="url(#gridFade)" /><line x1="1640.00" y1="160" x2="1640.00" y2="1040" stroke="url(#gridFade)" />
    <line x1="160" y1="160.00" x2="1640" y2="160.00" stroke="url(#gridFade)" /><line x1="160" y1="270.00" x2="1640" y2="270.00" stroke="url(#gridFade)" /><line x1="160" y1="380.00" x2="1640" y2="380.00" stroke="url(#gridFade)" /><line x1="160" y1="490.00" x2="1640" y2="490.00" stroke="url(#gridFade)" /><line x1="160" y1="600.00" x2="1640" y2="600.00" stroke="url(#gridFade)" /><line x1="160" y1="710.00" x2="1640" y2="710.00" stroke="url(#gridFade)" /><line x1="160" y1="820.00" x2="1640" y2="820.00" stroke="url(#gridFade)" /><line x1="160" y1="930.00" x2="1640" y2="930.00" stroke="url(#gridFade)" /><line x1="160" y1="1040.00" x2="1640" y2="1040.00" stroke="url(#gridFade)" />
  </g>

  <!-- Stars/particles -->
  <g opacity="0.7"><circle cx="458.67" cy="149.20" r="1.23" fill="#b987ff" opacity="0.09"/>
    <circle cx="175.21" cy="488.21" r="2.07" fill="#b987ff" opacity="0.21"/>
    <circle cx="1343.35" cy="284.11" r="1.46" fill="#b987ff" opacity="0.11"/>
    <circle cx="352.70" cy="152.62" r="0.94" fill="#b987ff" opacity="0.24"/>
    <circle cx="1449.95" cy="948.36" r="1.88" fill="#b987ff" opacity="0.10"/>
    <circle cx="582.07" cy="744.24" r="1.77" fill="#b987ff" opacity="0.22"/>
    <circle cx="1535.44" cy="130.51" r="1.57" fill="#b987ff" opacity="0.19"/>
    <circle cx="909.95" cy="233.97" r="1.36" fill="#b987ff" opacity="0.08"/>
    <circle cx="1626.63" cy="1015.19" r="1.48" fill="#b987ff" opacity="0.12"/>
    <circle cx="1583.63" cy="682.21" r="2.01" fill="#b987ff" opacity="0.22"/>
    <circle cx="914.00" cy="502.24" r="1.56" fill="#b987ff" opacity="0.14"/>
    <circle cx="333.73" cy="378.61" r="1.90" fill="#b987ff" opacity="0.07"/>
    <circle cx="141.45" cy="743.53" r="1.05" fill="#b987ff" opacity="0.16"/>
    <circle cx="851.91" cy="421.47" r="2.20" fill="#b987ff" opacity="0.10"/>
    <circle cx="754.19" cy="262.23" r="1.61" fill="#b987ff" opacity="0.11"/>
    <circle cx="658.95" cy="880.53" r="1.11" fill="#b987ff" opacity="0.17"/>
    <circle cx="1576.01" cy="146.71" r="0.70" fill="#b987ff" opacity="0.10"/>
    <circle cx="1343.35" cy="731.13" r="0.98" fill="#b987ff" opacity="0.12"/>
    <circle cx="360.85" cy="553.45" r="0.67" fill="#b987ff" opacity="0.19"/>
    <circle cx="1561.99" cy="1116.58" r="1.78" fill="#b987ff" opacity="0.24"/>
    <circle cx="94.41" cy="360.30" r="2.15" fill="#b987ff" opacity="0.21"/>
    <circle cx="750.24" cy="1103.60" r="1.59" fill="#b987ff" opacity="0.22"/>
    <circle cx="554.58" cy="249.45" r="1.31" fill="#b987ff" opacity="0.09"/>
    <circle cx="702.09" cy="1124.62" r="1.13" fill="#b987ff" opacity="0.06"/>
    <circle cx="138.90" cy="224.63" r="1.85" fill="#b987ff" opacity="0.13"/>
    <circle cx="549.44" cy="142.31" r="2.17" fill="#b987ff" opacity="0.14"/>
    <circle cx="411.64" cy="99.41" r="0.69" fill="#b987ff" opacity="0.09"/>
    <circle cx="1195.65" cy="201.99" r="0.67" fill="#b987ff" opacity="0.15"/>
    <circle cx="480.43" cy="1165.32" r="0.80" fill="#b987ff" opacity="0.16"/>
    <circle cx="1357.78" cy="496.99" r="2.18" fill="#b987ff" opacity="0.15"/>
    <circle cx="468.39" cy="498.47" r="0.66" fill="#b987ff" opacity="0.14"/>
    <circle cx="479.64" cy="1042.25" r="1.93" fill="#b987ff" opacity="0.15"/>
    <circle cx="116.92" cy="320.99" r="0.99" fill="#b987ff" opacity="0.10"/>
    <circle cx="451.01" cy="1019.99" r="0.83" fill="#b987ff" opacity="0.07"/>
    <circle cx="1615.67" cy="674.23" r="2.18" fill="#b987ff" opacity="0.14"/>
    <circle cx="1570.39" cy="774.91" r="1.87" fill="#b987ff" opacity="0.20"/>
    <circle cx="890.45" cy="137.54" r="0.94" fill="#b987ff" opacity="0.23"/>
    <circle cx="1568.40" cy="1082.32" r="1.14" fill="#b987ff" opacity="0.18"/>
    <circle cx="1400.77" cy="761.87" r="1.90" fill="#b987ff" opacity="0.16"/>
    <circle cx="1158.71" cy="811.25" r="1.03" fill="#b987ff" opacity="0.24"/>
    <circle cx="1662.90" cy="116.50" r="2.15" fill="#b987ff" opacity="0.24"/>
    <circle cx="1181.48" cy="82.60" r="2.04" fill="#b987ff" opacity="0.08"/>
    <circle cx="1683.39" cy="789.93" r="0.70" fill="#b987ff" opacity="0.09"/>
    <circle cx="1126.04" cy="678.62" r="1.79" fill="#b987ff" opacity="0.24"/>
    <circle cx="429.40" cy="35.72" r="2.08" fill="#b987ff" opacity="0.06"/>
    <circle cx="1529.38" cy="163.65" r="1.90" fill="#b987ff" opacity="0.21"/>
    <circle cx="1531.81" cy="657.49" r="2.01" fill="#b987ff" opacity="0.10"/>
    <circle cx="1186.72" cy="407.61" r="2.03" fill="#b987ff" opacity="0.21"/>
    <circle cx="852.36" cy="630.00" r="0.64" fill="#b987ff" opacity="0.07"/>
    <circle cx="1057.98" cy="587.31" r="1.98" fill="#b987ff" opacity="0.18"/>
    <circle cx="296.01" cy="443.88" r="1.83" fill="#b987ff" opacity="0.16"/>
    <circle cx="81.64" cy="983.61" r="1.92" fill="#b987ff" opacity="0.08"/>
    <circle cx="972.53" cy="465.00" r="1.86" fill="#b987ff" opacity="0.12"/>
    <circle cx="454.75" cy="584.84" r="2.15" fill="#b987ff" opacity="0.08"/>
    <circle cx="255.36" cy="737.41" r="2.02" fill="#b987ff" opacity="0.16"/>
    <circle cx="789.57" cy="1006.51" r="1.84" fill="#b987ff" opacity="0.07"/>
    <circle cx="1537.58" cy="254.49" r="1.08" fill="#b987ff" opacity="0.22"/>
    <circle cx="770.36" cy="938.92" r="0.87" fill="#b987ff" opacity="0.23"/>
    <circle cx="358.86" cy="201.61" r="1.39" fill="#b987ff" opacity="0.12"/>
    <circle cx="969.99" cy="1059.03" r="1.74" fill="#b987ff" opacity="0.06"/>
    <circle cx="585.36" cy="651.06" r="1.38" fill="#b987ff" opacity="0.20"/>
    <circle cx="873.67" cy="117.98" r="0.99" fill="#b987ff" opacity="0.22"/>
    <circle cx="660.55" cy="902.94" r="2.18" fill="#b987ff" opacity="0.18"/>
    <circle cx="1195.50" cy="724.43" r="1.10" fill="#b987ff" opacity="0.23"/>
    <circle cx="844.87" cy="1067.36" r="1.09" fill="#b987ff" opacity="0.22"/>
    <circle cx="1379.61" cy="728.37" r="1.31" fill="#b987ff" opacity="0.09"/>
    <circle cx="1353.18" cy="443.44" r="1.66" fill="#b987ff" opacity="0.09"/>
    <circle cx="202.04" cy="195.51" r="1.89" fill="#b987ff" opacity="0.09"/>
    <circle cx="1572.00" cy="454.58" r="1.52" fill="#b987ff" opacity="0.13"/>
    <circle cx="1102.03" cy="138.18" r="1.24" fill="#b987ff" opacity="0.24"/>
    <circle cx="364.42" cy="775.23" r="1.12" fill="#b987ff" opacity="0.12"/>
    <circle cx="102.74" cy="54.83" r="2.12" fill="#b987ff" opacity="0.22"/>
    <circle cx="1403.45" cy="949.04" r="2.13" fill="#b987ff" opacity="0.09"/>
    <circle cx="1040.73" cy="594.59" r="1.52" fill="#b987ff" opacity="0.24"/>
    <circle cx="1335.14" cy="1132.19" r="0.79" fill="#b987ff" opacity="0.18"/>
    <circle cx="1193.26" cy="878.55" r="1.59" fill="#b987ff" opacity="0.22"/>
    <circle cx="570.39" cy="1086.01" r="1.25" fill="#b987ff" opacity="0.17"/>
    <circle cx="1563.57" cy="831.28" r="1.10" fill="#b987ff" opacity="0.10"/>
    <circle cx="610.10" cy="744.04" r="2.19" fill="#b987ff" opacity="0.23"/>
    <circle cx="733.16" cy="487.15" r="1.91" fill="#b987ff" opacity="0.11"/>
    <circle cx="752.14" cy="46.98" r="0.89" fill="#b987ff" opacity="0.16"/>
    <circle cx="1223.18" cy="730.37" r="1.18" fill="#b987ff" opacity="0.24"/>
    <circle cx="1106.04" cy="209.28" r="0.71" fill="#b987ff" opacity="0.25"/>
    <circle cx="1715.63" cy="1077.08" r="1.57" fill="#b987ff" opacity="0.12"/>
    <circle cx="216.72" cy="324.98" r="0.96" fill="#b987ff" opacity="0.24"/>
    <circle cx="1556.37" cy="915.72" r="0.84" fill="#b987ff" opacity="0.11"/>
    <circle cx="564.29" cy="1108.85" r="0.86" fill="#b987ff" opacity="0.21"/>
    <circle cx="1202.12" cy="653.55" r="2.13" fill="#b987ff" opacity="0.11"/>
    <circle cx="940.74" cy="210.94" r="0.75" fill="#b987ff" opacity="0.07"/>
    <circle cx="593.22" cy="170.33" r="0.70" fill="#b987ff" opacity="0.25"/>
    <circle cx="547.30" cy="1043.30" r="1.72" fill="#b987ff" opacity="0.20"/>
    <circle cx="1159.46" cy="1114.17" r="2.01" fill="#b987ff" opacity="0.20"/>
    <circle cx="1000.25" cy="820.11" r="1.76" fill="#b987ff" opacity="0.16"/>
    <circle cx="904.26" cy="207.17" r="1.95" fill="#b987ff" opacity="0.15"/>
    <circle cx="177.36" cy="222.89" r="2.00" fill="#b987ff" opacity="0.11"/>
    <circle cx="718.29" cy="806.91" r="1.98" fill="#b987ff" opacity="0.12"/>
    <circle cx="710.74" cy="512.63" r="0.64" fill="#b987ff" opacity="0.23"/>
    <circle cx="95.77" cy="1122.67" r="0.84" fill="#b987ff" opacity="0.09"/>
    <circle cx="1482.84" cy="967.38" r="0.97" fill="#b987ff" opacity="0.17"/>
    <circle cx="861.05" cy="848.26" r="0.90" fill="#b987ff" opacity="0.22"/>
    <circle cx="1730.05" cy="834.54" r="2.07" fill="#b987ff" opacity="0.24"/>
    <circle cx="698.45" cy="994.77" r="1.93" fill="#b987ff" opacity="0.17"/>
    <circle cx="243.18" cy="735.46" r="2.06" fill="#b987ff" opacity="0.12"/>
    <circle cx="1145.53" cy="1051.18" r="1.56" fill="#b987ff" opacity="0.07"/>
    <circle cx="1120.62" cy="322.44" r="1.97" fill="#b987ff" opacity="0.19"/>
    <circle cx="577.96" cy="1049.45" r="1.60" fill="#b987ff" opacity="0.12"/>
    <circle cx="1458.73" cy="1044.88" r="2.03" fill="#b987ff" opacity="0.23"/>
    <circle cx="1164.74" cy="825.76" r="1.57" fill="#b987ff" opacity="0.16"/>
    <circle cx="1715.01" cy="433.08" r="0.73" fill="#b987ff" opacity="0.20"/>
    <circle cx="896.80" cy="651.85" r="1.56" fill="#b987ff" opacity="0.11"/>
    <circle cx="399.82" cy="113.05" r="1.85" fill="#b987ff" opacity="0.23"/>
    <circle cx="1228.90" cy="164.66" r="2.17" fill="#b987ff" opacity="0.22"/>
    <circle cx="915.55" cy="33.02" r="1.95" fill="#b987ff" opacity="0.18"/>
    <circle cx="1104.41" cy="52.75" r="1.77" fill="#b987ff" opacity="0.07"/>
    <circle cx="863.35" cy="196.56" r="1.18" fill="#b987ff" opacity="0.23"/>
    <circle cx="1315.31" cy="958.88" r="1.08" fill="#b987ff" opacity="0.13"/>
    <circle cx="1075.24" cy="70.67" r="1.26" fill="#b987ff" opacity="0.25"/>
    <circle cx="1324.76" cy="1012.07" r="1.08" fill="#b987ff" opacity="0.19"/>
    <circle cx="1382.93" cy="832.38" r="1.30" fill="#b987ff" opacity="0.09"/>
    <circle cx="94.00" cy="1039.64" r="2.09" fill="#b987ff" opacity="0.11"/>
    <circle cx="1327.67" cy="494.48" r="1.60" fill="#b987ff" opacity="0.22"/>
    <circle cx="601.06" cy="736.45" r="1.01" fill="#b987ff" opacity="0.16"/>
    <circle cx="114.30" cy="331.42" r="1.06" fill="#b987ff" opacity="0.23"/>
    <circle cx="285.38" cy="893.40" r="0.74" fill="#b987ff" opacity="0.25"/>
    <circle cx="341.54" cy="136.66" r="0.94" fill="#b987ff" opacity="0.24"/>
    <circle cx="1182.16" cy="1043.67" r="1.40" fill="#b987ff" opacity="0.08"/>
    <circle cx="633.31" cy="549.59" r="2.18" fill="#b987ff" opacity="0.09"/>
    <circle cx="472.24" cy="989.93" r="0.78" fill="#b987ff" opacity="0.24"/>
    <circle cx="559.92" cy="676.40" r="1.66" fill="#b987ff" opacity="0.23"/>
    <circle cx="190.59" cy="993.95" r="0.89" fill="#b987ff" opacity="0.20"/>
    <circle cx="109.51" cy="902.93" r="0.89" fill="#b987ff" opacity="0.10"/>
    <circle cx="122.28" cy="400.54" r="1.13" fill="#b987ff" opacity="0.25"/>
    <circle cx="1078.58" cy="445.83" r="2.18" fill="#b987ff" opacity="0.09"/>
    <circle cx="423.43" cy="1118.12" r="2.12" fill="#b987ff" opacity="0.19"/>
    <circle cx="1700.27" cy="97.31" r="2.05" fill="#b987ff" opacity="0.19"/>
    <circle cx="1181.03" cy="989.79" r="0.77" fill="#b987ff" opacity="0.10"/>
    <circle cx="294.40" cy="575.89" r="1.47" fill="#b987ff" opacity="0.16"/>
    <circle cx="669.59" cy="876.85" r="1.94" fill="#b987ff" opacity="0.20"/>
    <circle cx="127.34" cy="205.71" r="0.95" fill="#b987ff" opacity="0.11"/>
    <circle cx="1023.42" cy="253.00" r="1.60" fill="#b987ff" opacity="0.13"/>
    <circle cx="672.07" cy="836.38" r="2.11" fill="#b987ff" opacity="0.10"/>
    <circle cx="646.25" cy="1147.05" r="0.94" fill="#b987ff" opacity="0.07"/>
    <circle cx="383.58" cy="969.67" r="1.77" fill="#b987ff" opacity="0.24"/>
    <circle cx="895.54" cy="78.98" r="1.09" fill="#b987ff" opacity="0.20"/>
    <circle cx="720.80" cy="190.57" r="1.20" fill="#b987ff" opacity="0.15"/>
    <circle cx="659.10" cy="539.12" r="0.82" fill="#b987ff" opacity="0.07"/>
    <circle cx="1374.35" cy="863.83" r="1.27" fill="#b987ff" opacity="0.08"/>
    <circle cx="558.13" cy="666.22" r="2.03" fill="#b987ff" opacity="0.15"/>
    <circle cx="1692.11" cy="630.66" r="0.89" fill="#b987ff" opacity="0.18"/>
    <circle cx="1067.35" cy="712.72" r="1.76" fill="#b987ff" opacity="0.06"/>
    <circle cx="794.59" cy="941.16" r="0.82" fill="#b987ff" opacity="0.07"/>
    <circle cx="369.91" cy="356.40" r="1.30" fill="#b987ff" opacity="0.12"/>
    <circle cx="1124.72" cy="225.23" r="1.15" fill="#b987ff" opacity="0.19"/>
    <circle cx="974.14" cy="1121.09" r="2.10" fill="#b987ff" opacity="0.11"/>
    <circle cx="624.25" cy="642.74" r="1.47" fill="#b987ff" opacity="0.13"/>
    <circle cx="1506.39" cy="255.71" r="1.35" fill="#b987ff" opacity="0.08"/>
    <circle cx="1540.53" cy="708.69" r="2.18" fill="#b987ff" opacity="0.09"/>
    <circle cx="1252.97" cy="710.06" r="0.68" fill="#b987ff" opacity="0.22"/>
    <circle cx="1525.64" cy="123.48" r="2.11" fill="#b987ff" opacity="0.21"/>
    <circle cx="1074.82" cy="649.78" r="1.02" fill="#b987ff" opacity="0.07"/>
    <circle cx="858.97" cy="1015.72" r="0.93" fill="#b987ff" opacity="0.15"/>
    <circle cx="536.34" cy="816.92" r="2.14" fill="#b987ff" opacity="0.23"/>
    <circle cx="545.28" cy="505.68" r="0.60" fill="#b987ff" opacity="0.16"/>
    <circle cx="1491.14" cy="991.68" r="0.72" fill="#b987ff" opacity="0.14"/>
    <circle cx="197.83" cy="514.19" r="2.06" fill="#b987ff" opacity="0.11"/>
    <circle cx="1478.04" cy="1117.22" r="1.91" fill="#b987ff" opacity="0.10"/>
    <circle cx="1599.27" cy="1080.36" r="2.20" fill="#b987ff" opacity="0.06"/>
    <circle cx="70.03" cy="363.07" r="1.43" fill="#b987ff" opacity="0.14"/>
    <circle cx="218.63" cy="759.61" r="1.67" fill="#b987ff" opacity="0.18"/>
    <circle cx="917.76" cy="655.99" r="1.70" fill="#b987ff" opacity="0.07"/></g>

  <!-- Bars with slight skew for perspective -->
  <g transform="skewX(-6) translate(46.25,0)">
    <rect x="150.13" y="987.20" width="19.73" height="52.80" rx="3.55" fill="url(#barGrad)" opacity="0.377"/>
<rect x="188.08" y="929.56" width="19.73" height="110.44" rx="3.55" fill="url(#barGrad)" opacity="0.406"/>
<rect x="226.03" y="901.45" width="19.73" height="138.55" rx="3.55" fill="url(#barGrad)" opacity="0.421"/>
<rect x="263.98" y="909.33" width="19.73" height="130.67" rx="3.55" fill="url(#barGrad)" opacity="0.417"/>
<rect x="301.93" y="933.14" width="19.73" height="106.86" rx="3.55" fill="url(#barGrad)" opacity="0.405"/>
<rect x="339.88" y="948.58" width="19.73" height="91.42" rx="3.55" fill="url(#barGrad)" opacity="0.397"/>
<rect x="377.83" y="950.38" width="19.73" height="89.62" rx="3.55" fill="url(#barGrad)" opacity="0.396"/>
<rect x="415.77" y="953.60" width="19.73" height="86.40" rx="3.55" fill="url(#barGrad)" opacity="0.394"/>
<rect x="453.72" y="972.68" width="19.73" height="67.32" rx="3.55" fill="url(#barGrad)" opacity="0.384"/>
<rect x="491.67" y="1000.65" width="19.73" height="39.35" rx="3.55" fill="url(#barGrad)" opacity="0.370"/>
<rect x="529.62" y="1010.84" width="19.73" height="29.16" rx="3.55" fill="url(#barGrad)" opacity="0.365"/>
<rect x="567.57" y="980.69" width="19.73" height="59.31" rx="3.55" fill="url(#barGrad)" opacity="0.380"/>
<rect x="605.52" y="914.52" width="19.73" height="125.48" rx="3.55" fill="url(#barGrad)" opacity="0.414"/>
<rect x="643.47" y="842.51" width="19.73" height="197.49" rx="3.55" fill="url(#barGrad)" opacity="0.451"/>
<rect x="681.42" y="796.02" width="19.73" height="243.98" rx="3.55" fill="url(#barGrad)" opacity="0.475"/>
<rect x="719.36" y="782.70" width="19.73" height="257.30" rx="3.55" fill="url(#barGrad)" opacity="0.482"/>
<rect x="757.31" y="784.56" width="19.73" height="255.44" rx="3.55" fill="url(#barGrad)" opacity="0.481"/>
<rect x="795.26" y="779.72" width="19.73" height="260.28" rx="3.55" fill="url(#barGrad)" opacity="0.483"/>
<rect x="833.21" y="764.99" width="19.73" height="275.01" rx="3.55" fill="url(#barGrad)" opacity="0.491"/>
<rect x="871.16" y="756.64" width="19.73" height="283.36" rx="3.55" fill="url(#barGrad)" opacity="0.495"/>
<rect x="909.11" y="769.21" width="19.73" height="270.79" rx="3.55" fill="url(#barGrad)" opacity="0.488"/>
<rect x="947.06" y="794.60" width="19.73" height="245.40" rx="3.55" fill="url(#barGrad)" opacity="0.475"/>
<rect x="985.01" y="804.14" width="19.73" height="235.86" rx="3.55" fill="url(#barGrad)" opacity="0.471"/>
<rect x="1022.95" y="772.80" width="19.73" height="267.20" rx="3.55" fill="url(#barGrad)" opacity="0.487"/>
<rect x="1060.90" y="702.61" width="19.73" height="337.39" rx="3.55" fill="url(#barGrad)" opacity="0.523"/>
<rect x="1098.85" y="622.19" width="19.73" height="417.81" rx="3.55" fill="url(#barGrad)" opacity="0.564"/>
<rect x="1136.80" y="562.45" width="19.73" height="477.55" rx="3.55" fill="url(#barGrad)" opacity="0.594"/>
<rect x="1174.75" y="531.77" width="19.73" height="508.23" rx="3.55" fill="url(#barGrad)" opacity="0.610"/>
<rect x="1212.70" y="513.97" width="19.73" height="526.03" rx="3.55" fill="url(#barGrad)" opacity="0.619"/>
<rect x="1250.65" y="489.52" width="19.73" height="550.48" rx="3.55" fill="url(#barGrad)" opacity="0.631"/>
<rect x="1288.59" y="457.60" width="19.73" height="582.40" rx="3.55" fill="url(#barGrad)" opacity="0.648"/>
<rect x="1326.54" y="436.32" width="19.73" height="603.68" rx="3.55" fill="url(#barGrad)" opacity="0.659"/>
<rect x="1364.49" y="440.98" width="19.73" height="599.02" rx="3.55" fill="url(#barGrad)" opacity="0.656"/>
<rect x="1402.44" y="463.09" width="19.73" height="576.91" rx="3.55" fill="url(#barGrad)" opacity="0.645"/>
<rect x="1440.39" y="472.42" width="19.73" height="567.58" rx="3.55" fill="url(#barGrad)" opacity="0.640"/>
<rect x="1478.34" y="441.70" width="19.73" height="598.30" rx="3.55" fill="url(#barGrad)" opacity="0.656"/>
<rect x="1516.29" y="370.52" width="19.73" height="669.48" rx="3.55" fill="url(#barGrad)" opacity="0.692"/>
<rect x="1554.24" y="285.44" width="19.73" height="754.56" rx="3.55" fill="url(#barGrad)" opacity="0.736"/>
<rect x="1592.18" y="216.26" width="19.73" height="823.74" rx="3.55" fill="url(#barGrad)" opacity="0.771"/>
<rect x="1630.13" y="171.42" width="19.73" height="868.58" rx="3.55" fill="url(#barGrad)" opacity="0.794"/>

  </g>

  <!-- Multi-trail neon line -->
  <g>
    <path d="M 160.00,987.20 C 166.83,976.82 184.29,945.00 197.95,929.56 C 211.61,914.13 222.24,905.09 235.90,901.45 C 249.56,897.81 260.18,903.63 273.85,909.33 C 287.51,915.03 298.13,926.07 311.79,933.14 C 325.46,940.20 336.08,945.47 349.74,948.58 C 363.41,951.68 374.03,949.47 387.69,950.38 C 401.35,951.28 411.98,949.58 425.64,953.60 C 439.30,957.61 449.93,964.21 463.59,972.68 C 477.25,981.14 487.88,993.78 501.54,1000.65 C 515.20,1007.52 525.83,1014.43 539.49,1010.84 C 553.15,1007.25 563.77,998.03 577.44,980.69 C 591.10,963.35 601.72,939.40 615.38,914.52 C 629.05,889.65 639.67,863.84 653.33,842.51 C 666.99,821.18 677.62,806.79 691.28,796.02 C 704.94,785.26 715.57,784.76 729.23,782.70 C 742.89,780.63 753.52,785.09 767.18,784.56 C 780.84,784.02 791.47,783.24 805.13,779.72 C 818.79,776.20 829.42,769.14 843.08,764.99 C 856.74,760.83 867.36,755.88 881.03,756.64 C 894.69,757.40 905.31,762.37 918.97,769.21 C 932.64,776.04 943.26,788.32 956.92,794.60 C 970.58,800.89 981.21,808.07 994.87,804.14 C 1008.53,800.22 1019.16,791.07 1032.82,772.80 C 1046.48,754.52 1057.11,729.72 1070.77,702.61 C 1084.43,675.50 1095.06,647.42 1108.72,622.19 C 1122.38,596.96 1133.01,578.73 1146.67,562.45 C 1160.33,546.18 1170.95,540.50 1184.62,531.77 C 1198.28,523.05 1208.90,521.58 1222.56,513.97 C 1236.23,506.37 1246.85,499.67 1260.51,489.52 C 1274.17,479.37 1284.80,467.18 1298.46,457.60 C 1312.12,448.03 1322.75,439.31 1336.41,436.32 C 1350.07,433.33 1360.70,436.16 1374.36,440.98 C 1388.02,445.80 1398.65,457.43 1412.31,463.09 C 1425.97,468.75 1436.59,476.27 1450.26,472.42 C 1463.92,468.57 1474.54,460.04 1488.21,441.70 C 1501.87,423.36 1512.49,398.64 1526.15,370.52 C 1539.82,342.39 1550.44,313.21 1564.10,285.44 C 1577.76,257.68 1588.39,236.79 1602.05,216.26 C 1615.71,195.74 1633.17,179.49 1640.00,171.42" stroke="#b279ff" stroke-width="18" fill="none" opacity="0.35" filter="url(#heavyGlow)"/>
    <path d="M 160.00,987.20 C 166.83,976.82 184.29,945.00 197.95,929.56 C 211.61,914.13 222.24,905.09 235.90,901.45 C 249.56,897.81 260.18,903.63 273.85,909.33 C 287.51,915.03 298.13,926.07 311.79,933.14 C 325.46,940.20 336.08,945.47 349.74,948.58 C 363.41,951.68 374.03,949.47 387.69,950.38 C 401.35,951.28 411.98,949.58 425.64,953.60 C 439.30,957.61 449.93,964.21 463.59,972.68 C 477.25,981.14 487.88,993.78 501.54,1000.65 C 515.20,1007.52 525.83,1014.43 539.49,1010.84 C 553.15,1007.25 563.77,998.03 577.44,980.69 C 591.10,963.35 601.72,939.40 615.38,914.52 C 629.05,889.65 639.67,863.84 653.33,842.51 C 666.99,821.18 677.62,806.79 691.28,796.02 C 704.94,785.26 715.57,784.76 729.23,782.70 C 742.89,780.63 753.52,785.09 767.18,784.56 C 780.84,784.02 791.47,783.24 805.13,779.72 C 818.79,776.20 829.42,769.14 843.08,764.99 C 856.74,760.83 867.36,755.88 881.03,756.64 C 894.69,757.40 905.31,762.37 918.97,769.21 C 932.64,776.04 943.26,788.32 956.92,794.60 C 970.58,800.89 981.21,808.07 994.87,804.14 C 1008.53,800.22 1019.16,791.07 1032.82,772.80 C 1046.48,754.52 1057.11,729.72 1070.77,702.61 C 1084.43,675.50 1095.06,647.42 1108.72,622.19 C 1122.38,596.96 1133.01,578.73 1146.67,562.45 C 1160.33,546.18 1170.95,540.50 1184.62,531.77 C 1198.28,523.05 1208.90,521.58 1222.56,513.97 C 1236.23,506.37 1246.85,499.67 1260.51,489.52 C 1274.17,479.37 1284.80,467.18 1298.46,457.60 C 1312.12,448.03 1322.75,439.31 1336.41,436.32 C 1350.07,433.33 1360.70,436.16 1374.36,440.98 C 1388.02,445.80 1398.65,457.43 1412.31,463.09 C 1425.97,468.75 1436.59,476.27 1450.26,472.42 C 1463.92,468.57 1474.54,460.04 1488.21,441.70 C 1501.87,423.36 1512.49,398.64 1526.15,370.52 C 1539.82,342.39 1550.44,313.21 1564.10,285.44 C 1577.76,257.68 1588.39,236.79 1602.05,216.26 C 1615.71,195.74 1633.17,179.49 1640.00,171.42" stroke="url(#neonSecondary)" stroke-width="9" fill="none" opacity="0.8" filter="url(#softGlow)"/>
    <path d="M 160.00,987.20 C 166.83,976.82 184.29,945.00 197.95,929.56 C 211.61,914.13 222.24,905.09 235.90,901.45 C 249.56,897.81 260.18,903.63 273.85,909.33 C 287.51,915.03 298.13,926.07 311.79,933.14 C 325.46,940.20 336.08,945.47 349.74,948.58 C 363.41,951.68 374.03,949.47 387.69,950.38 C 401.35,951.28 411.98,949.58 425.64,953.60 C 439.30,957.61 449.93,964.21 463.59,972.68 C 477.25,981.14 487.88,993.78 501.54,1000.65 C 515.20,1007.52 525.83,1014.43 539.49,1010.84 C 553.15,1007.25 563.77,998.03 577.44,980.69 C 591.10,963.35 601.72,939.40 615.38,914.52 C 629.05,889.65 639.67,863.84 653.33,842.51 C 666.99,821.18 677.62,806.79 691.28,796.02 C 704.94,785.26 715.57,784.76 729.23,782.70 C 742.89,780.63 753.52,785.09 767.18,784.56 C 780.84,784.02 791.47,783.24 805.13,779.72 C 818.79,776.20 829.42,769.14 843.08,764.99 C 856.74,760.83 867.36,755.88 881.03,756.64 C 894.69,757.40 905.31,762.37 918.97,769.21 C 932.64,776.04 943.26,788.32 956.92,794.60 C 970.58,800.89 981.21,808.07 994.87,804.14 C 1008.53,800.22 1019.16,791.07 1032.82,772.80 C 1046.48,754.52 1057.11,729.72 1070.77,702.61 C 1084.43,675.50 1095.06,647.42 1108.72,622.19 C 1122.38,596.96 1133.01,578.73 1146.67,562.45 C 1160.33,546.18 1170.95,540.50 1184.62,531.77 C 1198.28,523.05 1208.90,521.58 1222.56,513.97 C 1236.23,506.37 1246.85,499.67 1260.51,489.52 C 1274.17,479.37 1284.80,467.18 1298.46,457.60 C 1312.12,448.03 1322.75,439.31 1336.41,436.32 C 1350.07,433.33 1360.70,436.16 1374.36,440.98 C 1388.02,445.80 1398.65,457.43 1412.31,463.09 C 1425.97,468.75 1436.59,476.27 1450.26,472.42 C 1463.92,468.57 1474.54,460.04 1488.21,441.70 C 1501.87,423.36 1512.49,398.64 1526.15,370.52 C 1539.82,342.39 1550.44,313.21 1564.10,285.44 C 1577.76,257.68 1588.39,236.79 1602.05,216.26 C 1615.71,195.74 1633.17,179.49 1640.00,171.42" stroke="url(#neonMain)" stroke-width="6" fill="none"/>
  </g>

  <!-- Reflection below baseline -->
  <g transform="translate(0,2080) scale(1,-1)" mask="url(#fadeDown)" opacity="0.3">
    <path d="M 160.00,987.20 C 166.83,976.82 184.29,945.00 197.95,929.56 C 211.61,914.13 222.24,905.09 235.90,901.45 C 249.56,897.81 260.18,903.63 273.85,909.33 C 287.51,915.03 298.13,926.07 311.79,933.14 C 325.46,940.20 336.08,945.47 349.74,948.58 C 363.41,951.68 374.03,949.47 387.69,950.38 C 401.35,951.28 411.98,949.58 425.64,953.60 C 439.30,957.61 449.93,964.21 463.59,972.68 C 477.25,981.14 487.88,993.78 501.54,1000.65 C 515.20,1007.52 525.83,1014.43 539.49,1010.84 C 553.15,1007.25 563.77,998.03 577.44,980.69 C 591.10,963.35 601.72,939.40 615.38,914.52 C 629.05,889.65 639.67,863.84 653.33,842.51 C 666.99,821.18 677.62,806.79 691.28,796.02 C 704.94,785.26 715.57,784.76 729.23,782.70 C 742.89,780.63 753.52,785.09 767.18,784.56 C 780.84,784.02 791.47,783.24 805.13,779.72 C 818.79,776.20 829.42,769.14 843.08,764.99 C 856.74,760.83 867.36,755.88 881.03,756.64 C 894.69,757.40 905.31,762.37 918.97,769.21 C 932.64,776.04 943.26,788.32 956.92,794.60 C 970.58,800.89 981.21,808.07 994.87,804.14 C 1008.53,800.22 1019.16,791.07 1032.82,772.80 C 1046.48,754.52 1057.11,729.72 1070.77,702.61 C 1084.43,675.50 1095.06,647.42 1108.72,622.19 C 1122.38,596.96 1133.01,578.73 1146.67,562.45 C 1160.33,546.18 1170.95,540.50 1184.62,531.77 C 1198.28,523.05 1208.90,521.58 1222.56,513.97 C 1236.23,506.37 1246.85,499.67 1260.51,489.52 C 1274.17,479.37 1284.80,467.18 1298.46,457.60 C 1312.12,448.03 1322.75,439.31 1336.41,436.32 C 1350.07,433.33 1360.70,436.16 1374.36,440.98 C 1388.02,445.80 1398.65,457.43 1412.31,463.09 C 1425.97,468.75 1436.59,476.27 1450.26,472.42 C 1463.92,468.57 1474.54,460.04 1488.21,441.70 C 1501.87,423.36 1512.49,398.64 1526.15,370.52 C 1539.82,342.39 1550.44,313.21 1564.10,285.44 C 1577.76,257.68 1588.39,236.79 1602.05,216.26 C 1615.71,195.74 1633.17,179.49 1640.00,171.42" stroke="url(#neonMain)" stroke-width="5" fill="none" filter="url(#softGlow)"/>
  </g>

  <!-- Dots and glow orbs on peaks -->
  <g><circle cx="160.00" cy="987.20" r="2.6" fill="#f2e7ff" opacity="0.75"/>
<circle cx="273.85" cy="909.33" r="2.6" fill="#f2e7ff" opacity="0.75"/>
<circle cx="387.69" cy="950.38" r="2.6" fill="#f2e7ff" opacity="0.75"/>
<circle cx="501.54" cy="1000.65" r="2.6" fill="#f2e7ff" opacity="0.75"/>
<circle cx="615.38" cy="914.52" r="2.6" fill="#f2e7ff" opacity="0.75"/>
<circle cx="729.23" cy="782.70" r="2.6" fill="#f2e7ff" opacity="0.75"/>
<circle cx="843.08" cy="764.99" r="2.6" fill="#f2e7ff" opacity="0.75"/>
<circle cx="956.92" cy="794.60" r="2.6" fill="#f2e7ff" opacity="0.75"/>
<circle cx="1070.77" cy="702.61" r="2.6" fill="#f2e7ff" opacity="0.75"/>
<circle cx="1184.62" cy="531.77" r="2.6" fill="#f2e7ff" opacity="0.75"/>
<circle cx="1298.46" cy="457.60" r="2.6" fill="#f2e7ff" opacity="0.75"/>
<circle cx="1412.31" cy="463.09" r="2.6" fill="#f2e7ff" opacity="0.75"/>
<circle cx="1526.15" cy="370.52" r="2.6" fill="#f2e7ff" opacity="0.75"/>
<circle cx="1640.00" cy="171.42" r="2.6" fill="#f2e7ff" opacity="0.75"/></g>
  <g>
    <g filter="url(#orbGlow)">
      <circle cx="1336.41" cy="436.32" r="28.86" fill="#b06dff" opacity="0.15"/>
      <circle cx="1336.41" cy="436.32" r="21.86" fill="#c985ff" opacity="0.5"/>
      <circle cx="1336.41" cy="436.32" r="18.86" fill="white" opacity="0.85"/>
    </g>
    

    <g filter="url(#orbGlow)">
      <circle cx="881.03" cy="756.64" r="25.22" fill="#b06dff" opacity="0.15"/>
      <circle cx="881.03" cy="756.64" r="18.22" fill="#c985ff" opacity="0.5"/>
      <circle cx="881.03" cy="756.64" r="15.22" fill="white" opacity="0.85"/>
    </g>
    

    <g filter="url(#orbGlow)">
      <circle cx="729.23" cy="782.70" r="24.92" fill="#b06dff" opacity="0.15"/>
      <circle cx="729.23" cy="782.70" r="17.92" fill="#c985ff" opacity="0.5"/>
      <circle cx="729.23" cy="782.70" r="14.92" fill="white" opacity="0.85"/>
    </g>
    

    <g filter="url(#orbGlow)">
      <circle cx="235.90" cy="901.45" r="23.57" fill="#b06dff" opacity="0.15"/>
      <circle cx="235.90" cy="901.45" r="16.57" fill="#c985ff" opacity="0.5"/>
      <circle cx="235.90" cy="901.45" r="13.57" fill="white" opacity="0.85"/>
    </g>
    </g>
</svg>
